<svg width="22" height="32" viewBox="0 0 22 32" fill="none" xmlns="http://www.w3.org/2000/svg">
<path fill-rule="evenodd" clip-rule="evenodd" d="M2 0C0.895432 0 0 0.895432 0 2V29.6228C0 30.7273 0.895432 31.6228 2 31.6228H19.0818C20.1864 31.6228 21.0818 30.7273 21.0818 29.6228V2C21.0818 0.895432 20.1864 0 19.0818 0H2ZM16.69 3.51369H11.4195V6.14893H9.66272V3.51369H4.39227V15.8114H16.69V3.51369ZM15.1841 21.5838C15.8078 21.5838 16.3135 21.0782 16.3135 20.4544C16.3135 19.8307 15.8078 19.3251 15.1841 19.3251C14.5604 19.3251 14.0547 19.8307 14.0547 20.4544C14.0547 21.0782 14.5604 21.5838 15.1841 21.5838Z" fill="white"/>
</svg>
