<svg width="18" height="31" viewBox="0 0 18 31" fill="none" xmlns="http://www.w3.org/2000/svg">
<path d="M15.6 3.06597C15.6 2.25279 15.2749 1.47301 14.6962 0.897933C14.1176 0.322984 13.3327 0 12.5143 0C11.6959 0 10.911 0.322984 10.3324 0.897933C9.75373 1.47301 9.4286 2.25279 9.4286 3.06597H10.4598C10.4598 2.52454 10.6763 2.00532 11.0616 1.62249C11.4468 1.23967 11.9694 1.02469 12.5143 1.02469C13.0592 1.02469 13.5818 1.23967 13.967 1.62249C14.3523 2.00532 14.5688 2.52454 14.5688 3.06597H14.5714V7.15392H0V13.396C0 14.5581 0.94812 15.5001 2.11765 15.5001L8.40002 15.5L6.35294 31H18V7.15392H15.6V3.06597Z" fill="white"/>
</svg>
